<svg width="34" height="34" viewBox="0 0 34 34" fill="none" xmlns="http://www.w3.org/2000/svg">
<rect width="34" height="34" rx="17" fill="#6984F0"/>
<path d="M26.1667 18.0574H7.83333C7.37333 18.0574 7 17.7304 7 17.3274C7 16.9244 7.37333 16.5973 7.83333 16.5973H26.1667C26.6267 16.5973 27 16.9244 27 17.3274C27 17.7304 26.6267 18.0574 26.1667 18.0574Z" fill="white"/>
<path d="M26.1667 12.4601H7.83333C7.37333 12.4601 7 12.1331 7 11.7301C7 11.3271 7.37333 11 7.83333 11H26.1667C26.6267 11 27 11.3271 27 11.7301C27 12.1331 26.6267 12.4601 26.1667 12.4601Z" fill="white"/>
<path d="M26.1667 23.6545H7.83333C7.37333 23.6545 7 23.3274 7 22.9244C7 22.5214 7.37333 22.1943 7.83333 22.1943H26.1667C26.6267 22.1943 27 22.5214 27 22.9244C27 23.3274 26.6267 23.6545 26.1667 23.6545Z" fill="white"/>
</svg>
