<svg width="23" height="28" viewBox="0 0 23 28" fill="none" xmlns="http://www.w3.org/2000/svg">
<g clip-path="url(#clip0_31_4195)">
<path d="M9.43583 5.22667C8.58183 5.22667 7.747 5.48805 7.03693 5.97775C6.32685 6.46746 5.77341 7.16349 5.4466 7.97784C5.11979 8.79219 5.03428 9.68828 5.20089 10.5528C5.3675 11.4173 5.77874 12.2114 6.38261 12.8347C6.98648 13.458 7.75585 13.8824 8.59345 14.0544C9.43104 14.2263 10.2992 14.1381 11.0882 13.8008C11.8772 13.4634 12.5516 12.8922 13.026 12.1593C13.5005 11.4264 13.7537 10.5648 13.7537 9.68334C13.7537 8.50135 13.2988 7.36778 12.489 6.532C11.6793 5.69621 10.581 5.22667 9.43583 5.22667ZM9.43583 12.5844C8.87991 12.5844 8.33647 12.4143 7.87424 12.0955C7.41201 11.7767 7.05174 11.3237 6.839 10.7935C6.62626 10.2634 6.5706 9.68012 6.67905 9.11736C6.78751 8.5546 7.05521 8.03767 7.4483 7.63194C7.8414 7.22621 8.34223 6.94991 8.88747 6.83797C9.43271 6.72603 9.99787 6.78348 10.5115 7.00306C11.0251 7.22264 11.4641 7.59448 11.7729 8.07157C12.0818 8.54865 12.2466 9.10955 12.2466 9.68334C12.2446 10.4514 11.9476 11.1873 11.4207 11.7297C10.8938 12.2721 10.18 12.5767 9.43583 12.5767V12.5844Z" fill="#263057"/>
<path d="M18.3053 10.4922C17.794 10.4776 17.287 10.3912 16.7982 10.2356V10.6789C16.7982 13.8367 14.9746 16.6444 13.6408 18.6978L13.3695 19.11C12.0734 21.1167 10.3552 23.3644 9.42837 24.4767C8.53916 23.3644 6.78337 21.1167 5.48724 19.11L5.23103 18.6667C3.89723 16.6133 2.06607 13.8056 2.06607 10.6478C2.07064 9.33995 2.40217 8.05548 3.02858 6.91863C3.65499 5.78178 4.55507 4.83104 5.64175 4.15839C6.72842 3.48575 7.96491 3.11396 9.23157 3.07901C10.4982 3.04406 11.7522 3.34713 12.8721 3.95889C12.9321 3.4241 13.064 2.90055 13.264 2.40333C11.9108 1.72876 10.4135 1.42077 8.91307 1.50838C7.41268 1.59599 5.95858 2.07631 4.6877 2.90411C3.41682 3.73191 2.37098 4.87995 1.64867 6.24012C0.926365 7.60029 0.551353 9.12782 0.558951 10.6789C0.558951 14.3111 2.53328 17.3522 3.98012 19.5689L4.24387 19.9733C5.68338 22.1267 7.22764 24.2034 8.87073 26.1956L9.44344 26.8878L10.0161 26.1956C11.659 24.2033 13.2033 22.1265 14.643 19.9733L14.9068 19.5611C16.3461 17.3444 18.3204 14.3111 18.3204 10.6789C18.3129 10.6167 18.3053 10.5544 18.3053 10.4922Z" fill="#263057"/>
<path d="M18.4785 8.55555C20.5594 8.55555 22.2463 6.81443 22.2463 4.66666C22.2463 2.51889 20.5594 0.777771 18.4785 0.777771C16.3976 0.777771 14.7107 2.51889 14.7107 4.66666C14.7107 6.81443 16.3976 8.55555 18.4785 8.55555Z" fill="#263057"/>
</g>
<defs>
<clipPath id="clip0_31_4195">
<rect width="23" height="28" fill="white"/>
</clipPath>
</defs>
</svg>
